<svg width="26" height="26" viewBox="0 0 26 26" fill="none" xmlns="http://www.w3.org/2000/svg">
<path d="M13.0005 5.53306C14.8632 5.50561 16.6646 6.17025 18.0267 7.38749L21.6955 3.95158C19.3417 1.8392 16.2259 0.680883 13.0005 0.719182C10.5905 0.718649 8.22797 1.3602 6.17696 2.57208C4.12596 3.78397 2.46738 5.51841 1.38672 7.58144L5.59047 10.7073C6.10448 9.21039 7.09614 7.9058 8.42559 6.97747C9.75505 6.04914 11.3552 5.54392 13.0005 5.53306Z" fill="#E43E2B"/>
<path d="M25.48 13.4468C25.4953 12.5909 25.403 11.7364 25.205 10.9016H13V15.5227H20.165C20.0291 16.3329 19.7235 17.1084 19.2666 17.8026C18.8097 18.4967 18.2109 19.0952 17.5062 19.562L21.6087 22.6053C22.8873 21.423 23.8928 19.9971 24.5602 18.4196C25.2277 16.8421 25.5423 15.148 25.4837 13.4468H25.48Z" fill="#3B7DED"/>
<path d="M5.60543 15.6319C5.3212 14.8392 5.17467 14.0073 5.17168 13.1693C5.17686 12.3325 5.31814 11.5017 5.59043 10.7067L1.38668 7.58081C0.47492 9.3145 0 11.2287 0 13.1699C0 15.111 0.47492 17.0252 1.38668 18.7589L5.60543 15.6319Z" fill="#F0B501"/>
<path d="M13.0004 25.6204C16.167 25.7062 19.2476 24.627 21.6091 22.6047L17.5066 19.5615C16.1764 20.4156 14.6011 20.8508 13.0004 20.8066C11.3565 20.7972 9.7575 20.2923 8.43013 19.3636C7.10275 18.4348 6.11443 17.1293 5.60536 15.6323L1.40161 18.7594C2.47936 20.8215 4.13522 22.5555 6.18375 23.7673C8.23229 24.9791 10.5926 25.6207 13.0004 25.6204Z" fill="#2BA24C"/>
</svg>
